<svg width="22" height="21" viewBox="0 0 22 21" fill="none" xmlns="http://www.w3.org/2000/svg">
<path d="M4.99358 0.931641L16.8936 12.8316L19.0136 10.7116L20.4236 12.1216L17.9536 14.5916L21.1336 17.7716C21.5236 18.1616 21.5236 18.7916 21.1336 19.1816L20.4236 19.8916C20.3311 19.9843 20.2212 20.0579 20.1002 20.1081C19.9792 20.1583 19.8495 20.1841 19.7186 20.1841C19.5876 20.1841 19.4579 20.1583 19.337 20.1081C19.216 20.0579 19.1061 19.9843 19.0136 19.8916L15.7936 16.7216L13.3536 19.1916L11.9436 17.7816L14.0636 15.6616L2.16358 3.76164V0.931641H4.99358ZM14.6836 8.49164L19.4236 3.75164V0.931641H16.5936L11.8536 5.67164L14.6836 8.49164ZM9.73358 13.4916L6.90358 10.6216L4.69358 12.8316L2.57358 10.7116L1.16358 12.1216L3.63358 14.5916L0.453577 17.7816C0.360873 17.8742 0.287326 17.984 0.237144 18.105C0.186963 18.226 0.161133 18.3557 0.161133 18.4866C0.161133 18.6176 0.186963 18.7473 0.237144 18.8683C0.287326 18.9892 0.360873 19.0991 0.453577 19.1916L1.16358 19.9016C1.55358 20.2916 2.18358 20.2916 2.57358 19.9016L5.79358 16.7216L8.23358 19.1916L9.64358 17.7816L7.52358 15.6616L9.73358 13.4916Z" fill="#FE8D8D"/>
</svg>
