<?xml version="1.0" encoding="UTF-8" standalone="no"?>
<svg
   height="24px"
   viewBox="0 0 24 24"
   width="24px"
   fill="#000000"
   version="1.1"
   id="svg6"
   sodipodi:docname="discord.svg"
   inkscape:version="1.3.2 (091e20ef0f, 2023-11-25, custom)"
   xmlns:inkscape="http://www.inkscape.org/namespaces/inkscape"
   xmlns:sodipodi="http://sodipodi.sourceforge.net/DTD/sodipodi-0.dtd"
   xmlns="http://www.w3.org/2000/svg"
   xmlns:svg="http://www.w3.org/2000/svg"
   xmlns:rdf="http://www.w3.org/1999/02/22-rdf-syntax-ns#"
   xmlns:cc="http://creativecommons.org/ns#"
   xmlns:dc="http://purl.org/dc/elements/1.1/">
  <metadata
     id="metadata12">
    <rdf:RDF>
      <cc:Work
         rdf:about="">
        <dc:format>image/svg+xml</dc:format>
        <dc:type
           rdf:resource="http://purl.org/dc/dcmitype/StillImage" />
        <dc:title />
      </cc:Work>
    </rdf:RDF>
  </metadata>
  <defs
     id="defs10" />
  <sodipodi:namedview
     pagecolor="#ffffff"
     bordercolor="#666666"
     borderopacity="1"
     objecttolerance="10"
     gridtolerance="10"
     guidetolerance="10"
     inkscape:pageopacity="0"
     inkscape:pageshadow="2"
     inkscape:window-width="1920"
     inkscape:window-height="1028"
     id="namedview8"
     showgrid="false"
     inkscape:zoom="24.637222"
     inkscape:cx="4.6677341"
     inkscape:cy="7.1030737"
     inkscape:window-x="0"
     inkscape:window-y="28"
     inkscape:window-maximized="0"
     inkscape:current-layer="g2"
     inkscape:showpageshadow="0"
     inkscape:pagecheckerboard="0"
     inkscape:deskcolor="#d1d1d1" />
  <path
     d="M0 0h24v24H0V0z"
     fill="none"
     id="path2" />
  <g
     id="g2"
     style="fill:none;fill-opacity:1;stroke:#578eb3;stroke-width:31.91328122;stroke-dasharray:none;stroke-opacity:1"
     transform="matrix(0.06979503,0,0,0.06508987,3.066,5.5293246)">
    <path
       d="M 216.85634,16.596603 C 200.285,8.8432867 182.56614,3.2084988 164.04156,0 c -2.27504,4.1131811 -4.93294,9.6454991 -6.76546,14.046438 -19.69211,-2.961448 -39.20313,-2.961448 -58.533084,0 C 96.910842,9.6454991 94.192584,4.1131811 91.897189,0 73.352607,3.2084988 55.613395,8.8639912 39.042058,16.637661 5.6175229,67.146514 -3.4433191,116.40081 1.0871107,164.95572 23.25602,181.51091 44.740363,191.5677 65.862133,198.14858 c 5.215082,-7.17745 9.86623,-14.80725 13.873081,-22.84832 45.645856,-0.87443 81.153876,-1.01346 96.488326,0.0207 4.00685,8.02037 8.638,15.67087 13.87308,22.84797 21.14213,-6.58088 42.6464,-16.63731 64.81533,-33.21321 5.3158,-56.28752 -9.08086,-105.089477 -38.05561,-148.359117 z M 85.473875,135.09489 c -12.644847,0 -23.014653,-11.80473 -23.014653,-26.17999 0,-14.375253 10.148373,-26.200341 23.014653,-26.200341 12.866631,0 23.236085,11.804384 23.014655,26.200341 0.02,14.37526 -10.148024,26.17999 -23.014655,26.17999 z m 85.051365,0 c -12.64485,0 -23.01466,-11.80473 -23.01466,-26.17999 0,-14.375253 10.14803,-26.200341 23.01466,-26.200341 12.86628,0 23.23608,11.804384 23.01465,26.200341 0,14.37526 -10.14837,26.17999 -23.01465,26.17999 z"
       fill="#5865F2"
       fill-rule="nonzero"
       id="path1"
       style="fill:none;fill-opacity:1;stroke:#578eb3;stroke-width:31.9133;stroke-linecap:butt;stroke-linejoin:bevel;stroke-dasharray:none;stroke-opacity:1;paint-order:stroke fill markers"
       sodipodi:nodetypes="cccccccccccccssscsssscs" />
  </g>
</svg>
