<svg width="19" height="19" viewBox="0 0 19 19" fill="none" xmlns="http://www.w3.org/2000/svg">
<path d="M0.326172 15.1841V18.9341H4.07617L15.1362 7.87408L11.3862 4.12408L0.326172 15.1841ZM18.0362 4.97408C18.1289 4.88157 18.2024 4.77168 18.2526 4.65071C18.3028 4.52974 18.3286 4.40005 18.3286 4.26908C18.3286 4.13812 18.3028 4.00843 18.2526 3.88746C18.2024 3.76649 18.1289 3.6566 18.0362 3.56408L15.6962 1.22408C15.6037 1.13138 15.4938 1.05783 15.3728 1.00765C15.2518 0.957471 15.1221 0.931641 14.9912 0.931641C14.8602 0.931641 14.7305 0.957471 14.6095 1.00765C14.4886 1.05783 14.3787 1.13138 14.2862 1.22408L12.4562 3.05408L16.2062 6.80408L18.0362 4.97408V4.97408Z" fill="#D5C31B"/>
</svg>
