<svg width="19" height="19" viewBox="0 0 19 19" fill="none" xmlns="http://www.w3.org/2000/svg">
<path d="M0.25 14.6758V18.4258H4L15.06 7.36578L11.31 3.61578L0.25 14.6758ZM17.96 4.46578C18.0527 4.37327 18.1263 4.26338 18.1764 4.14241C18.2266 4.02143 18.2524 3.89175 18.2524 3.76078C18.2524 3.62982 18.2266 3.50013 18.1764 3.37916C18.1263 3.25819 18.0527 3.1483 17.96 3.05578L15.62 0.715784C15.5275 0.62308 15.4176 0.549533 15.2966 0.499351C15.1757 0.44917 15.046 0.42334 14.915 0.42334C14.784 0.42334 14.6543 0.44917 14.5334 0.499351C14.4124 0.549533 14.3025 0.62308 14.21 0.715784L12.38 2.54578L16.13 6.29578L17.96 4.46578V4.46578Z" fill="#578EB3"/>
</svg>
