<svg width="19" height="18" viewBox="0 0 19 18" fill="none" xmlns="http://www.w3.org/2000/svg">
<path d="M9.73273 0.114951C4.76273 -0.0150492 0.63273 3.91495 0.50273 8.88495C0.457985 10.7022 0.964166 12.4905 1.95474 14.0147C2.9453 15.539 4.3739 16.7278 6.05273 17.4249L7.94273 12.525C6.11273 11.525 5.42273 9.24495 6.41273 7.41495C6.88983 6.53683 7.69493 5.8831 8.6523 5.59645C9.60967 5.3098 10.6416 5.41351 11.5227 5.88495C12.121 6.20874 12.6207 6.68819 12.9689 7.2726C13.3172 7.85701 13.501 8.52466 13.501 9.20495C13.501 9.88524 13.3172 10.5529 12.9689 11.1373C12.6207 11.7217 12.121 12.2012 11.5227 12.525L13.4127 17.455C15.5937 16.477 17.3032 14.6814 18.1727 12.455C20.0127 7.83495 17.7727 2.60495 13.1527 0.754951C12.0645 0.323805 10.9033 0.106507 9.73273 0.114951Z" fill="#28A44B"/>
</svg>
