<?xml version="1.0" encoding="UTF-8" standalone="no"?>
<svg
        xmlns:dc="http://purl.org/dc/elements/1.1/"
        xmlns:cc="http://creativecommons.org/ns#"
        xmlns:rdf="http://www.w3.org/1999/02/22-rdf-syntax-ns#"
        xmlns="http://www.w3.org/2000/svg"
        xmlns:sodipodi="http://sodipodi.sourceforge.net/DTD/sodipodi-0.dtd"
        xmlns:inkscape="http://www.inkscape.org/namespaces/inkscape"
        enable-background="new 0 0 24 24"
        height="24px"
        viewBox="0 0 24 24"
        width="24px"
        fill="#000000"
        version="1.1"
        id="svg12"
        sodipodi:docname="robot.svg"
        inkscape:version="1.0.2 (e86c870879, 2021-01-15)">
  <metadata
     id="metadata18">
    <rdf:RDF>
      <cc:Work
         rdf:about="">
        <dc:format>image/svg+xml</dc:format>
        <dc:type
           rdf:resource="http://purl.org/dc/dcmitype/StillImage" />
        <dc:title></dc:title>
      </cc:Work>
    </rdf:RDF>
  </metadata>
  <defs
     id="defs16" />
  <sodipodi:namedview
     pagecolor="#ffffff"
     bordercolor="#666666"
     borderopacity="1"
     objecttolerance="10"
     gridtolerance="10"
     guidetolerance="10"
     inkscape:pageopacity="0"
     inkscape:pageshadow="2"
     inkscape:window-width="1920"
     inkscape:window-height="1030"
     id="namedview14"
     showgrid="false"
     inkscape:zoom="18.3125"
     inkscape:cx="-5.2704185"
     inkscape:cy="9.2853646"
     inkscape:window-x="0"
     inkscape:window-y="1466"
     inkscape:window-maximized="0"
     inkscape:current-layer="g10" />
  <g
     id="g4">
    <rect
       fill="none"
       height="24"
       width="24"
       y="0"
       id="rect2" />
  </g>
  <g
     id="g10">
    <g
       id="g8"
       style="fill:#578eb3;fill-opacity:1">
      <path
         d="M20,9V7c0-1.1-0.9-2-2-2h-3c0-1.66-1.34-3-3-3S9,3.34,9,5H6C4.9,5,4,5.9,4,7v2c-1.66,0-3,1.34-3,3s1.34,3,3,3v4 c0,1.1,0.9,2,2,2h12c1.1,0,2-0.9,2-2v-4c1.66,0,3-1.34,3-3S21.66,9,20,9z M18,19L6,19V7h12V19z M9,13c-0.83,0-1.5-0.67-1.5-1.5 S8.17,10,9,10s1.5,0.67,1.5,1.5S9.83,13,9,13z M16.5,11.5c0,0.83-0.67,1.5-1.5,1.5s-1.5-0.67-1.5-1.5S14.17,10,15,10 S16.5,10.67,16.5,11.5z M8,15h8v2H8V15z"
         id="path6"
         style="fill:#578eb3;fill-opacity:1" />
    </g>
  </g>
</svg>
