<svg width="19" height="20" viewBox="0 0 19 20" fill="none" xmlns="http://www.w3.org/2000/svg">
<path d="M16.0284 11.0018C16.0672 10.7108 16.0866 10.41 16.0866 10.0898C16.0866 9.77938 16.0672 9.46891 16.0187 9.17785L17.9882 7.64493C18.0731 7.57497 18.131 7.47776 18.1523 7.36984C18.1735 7.26193 18.1567 7.14999 18.1046 7.0531L16.2418 3.83203C16.187 3.73458 16.0994 3.65969 15.9946 3.62063C15.8899 3.58156 15.7747 3.58083 15.6694 3.61858L13.3506 4.54998C12.8655 4.1813 12.3513 3.87083 11.7789 3.63798L11.4296 1.17367C11.4124 1.06261 11.356 0.961392 11.2705 0.888402C11.1851 0.815413 11.0763 0.775489 10.9639 0.775882H7.23832C7.00548 0.775882 6.82114 0.940816 6.78233 1.17367L6.43305 3.63798C5.86063 3.87083 5.33672 4.191 4.86132 4.54998L2.54254 3.61858C2.32909 3.54096 2.08654 3.61858 1.97011 3.83203L0.117024 7.0531C0.000599869 7.25685 0.0394079 7.5091 0.233449 7.64493L2.20296 9.17785C2.15445 9.46891 2.11565 9.78908 2.11565 10.0898C2.11565 10.3906 2.13505 10.7108 2.18356 11.0018L0.214045 12.5348C0.129175 12.6047 0.0711857 12.7019 0.0499565 12.8098C0.0287274 12.9178 0.045572 13.0297 0.0976203 13.1266L1.96041 16.3477C2.07684 16.5611 2.31939 16.629 2.53283 16.5611L4.85162 15.6297C5.33672 15.9984 5.85093 16.3089 6.42335 16.5417L6.77263 19.006C6.82114 19.2389 7.00548 19.4038 7.23832 19.4038H10.9639C11.1968 19.4038 11.3908 19.2389 11.4199 19.006L11.7692 16.5417C12.3416 16.3089 12.8655 15.9984 13.3409 15.6297L15.6597 16.5611C15.8731 16.6387 16.1157 16.5611 16.2321 16.3477L18.0949 13.1266C18.2113 12.9131 18.1628 12.6706 17.9785 12.5348L16.0284 11.0018ZM9.10112 13.5826C7.18011 13.5826 5.60838 12.0108 5.60838 10.0898C5.60838 8.16884 7.18011 6.59711 9.10112 6.59711C11.0221 6.59711 12.5939 8.16884 12.5939 10.0898C12.5939 12.0108 11.0221 13.5826 9.10112 13.5826Z" fill="#C4C4C4"/>
</svg>
